PathFileType	4	(X/Y/Z)	 s04c0101.trc
DataRate	CameraRate	NumFrames	NumMarkers	Units	OrigDataRate	OrigDataStartFrame	OrigNumFrames
200	200	6	51	mm	200	251	2000
Frame#	Time	racr			lacr			c7			jug			rlel			rdr			llel			ldr			s2			lic			ric			lasi			rasi			rpsi			lpsi			rgt			lgt			rth1			rth2			rth3			rth4			rlfc			rmfc			rsh1			rsh2			rsh3			rsh4			rlmal			rmmal			rcal			rtoe			rmt5			lth1			lth2			lth4			lth3			llfc			lmfc			lsh1			lsh2			lsh3			lsh4			llmal			lmmal			lcal			ltoe			lmt1			lmt5			SBIKE			LBIKE			RBIKE			
		X1	Y1	Z1	X2	Y2	Z2	X3	Y3	Z3	X4	Y4	Z4	X5	Y5	Z5	X6	Y6	Z6	X7	Y7	Z7	X8	Y8	Z8	X9	Y9	Z9	X10	Y10	Z10	X11	Y11	Z11	X12	Y12	Z12	X13	Y13	Z13	X14	Y14	Z14	X15	Y15	Z15	X16	Y16	Z16	X17	Y17	Z17	X18	Y18	Z18	X19	Y19	Z19	X20	Y20	Z20	X21	Y21	Z21	X22	Y22	Z22	X23	Y23	Z23	X24	Y24	Z24	X25	Y25	Z25	X26	Y26	Z26	X27	Y27	Z27	X28	Y28	Z28	X29	Y29	Z29	X30	Y30	Z30	X31	Y31	Z31	X32	Y32	Z32	X33	Y33	Z33	X34	Y34	Z34	X35	Y35	Z35	X36	Y36	Z36	X37	Y37	Z37	X38	Y38	Z38	X39	Y39	Z39	X40	Y40	Z40	X41	Y41	Z41	X42	Y42	Z42	X43	Y43	Z43	X44	Y44	Z44	X45	Y45	Z45	X46	Y46	Z46	X47	Y47	Z47	X48	Y48	Z48	X49	Y49	Z49	X50	Y50	Z50	X51	Y51	Z51	
251	1.2550	482.559774	1444.011589	-154.643457	480.159714	1454.115569	-404.834454	451.129147	1494.843031	-278.395130	463.177316	1346.924062	-287.749527	537.695705	1148.593270	-22.908780	695.097941	903.600878	-84.152460	501.426644	1169.227119	-522.104908	685.345295	931.210283	-448.193762	-83.968562	1206.090007	-241.100716	66.114667	1227.019097	-416.301690	93.964442	1200.173095	-97.765186	NaN	NaN	NaN	128.143222	1147.779864	-149.857542	-48.796593	1247.467475	-199.143912	-60.592408	1257.058719	-272.840453	44.194844	1138.497114	-76.709405	17.828610	1148.627169	-444.108418	140.143718	1015.662418	-80.457518	204.196551	955.006453	-91.231222	232.918465	874.761875	-91.116767	229.607160	973.385302	-109.830291	282.895667	736.946254	-110.602146	257.831124	720.573767	-222.638870	201.336809	634.957305	-85.962901	170.217357	553.390428	-102.613389	100.910874	502.180851	-110.080716	197.406271	538.719410	-126.581159	24.080878	366.257554	-117.659226	50.122677	367.514795	-203.582898	-49.313053	363.849599	-164.290780	216.581831	212.200497	-149.353238	142.789539	222.038030	-99.954754	87.648850	1083.231898	-453.742336	171.945393	1061.524406	-459.291692	189.242285	1092.188999	-451.920760	234.233385	998.140668	-460.715069	365.003482	898.028449	-447.123444	402.276357	880.630549	-337.180306	357.489281	777.651159	-469.390674	353.974830	693.184804	-447.908953	310.325554	616.442597	-445.667459	382.908429	688.349278	-420.698489	261.138607	478.642924	-443.534244	255.661771	478.866494	-356.200351	180.881412	448.231768	-403.844678	483.627259	457.537400	-402.070422	411.991164	433.579070	-353.642653	416.392813	416.945704	-464.578361	-178.202767	941.426291	-278.914678	-4.014627	85.644601	-484.097304	-15.865921	80.342065	-83.281463	
252	1.2600	482.211613	1443.887513	-154.765414	479.813920	1454.107283	-405.009203	450.533470	1494.677336	-278.311510	462.860627	1346.745414	-287.787535	537.167948	1148.322297	-22.834839	694.936126	903.599956	-84.035238	500.609006	1169.017382	-522.115955	685.066787	931.301844	-448.149352	-83.771421	1205.137061	-240.383039	66.313080	1226.127034	-416.263134	93.863773	1199.456432	-98.441373	NaN	NaN	NaN	128.223689	1146.807566	-150.033913	-49.005410	1246.254049	-199.008861	-60.606980	1255.769934	-272.803320	44.490406	1137.551765	-76.590762	18.523749	1147.776930	-444.034600	141.280575	1015.516374	-80.367153	205.723703	955.203784	-91.146872	235.037730	875.235158	-90.903368	230.886776	973.662564	-109.977415	285.464238	737.673902	-110.063894	260.560743	721.164099	-222.147271	203.269154	636.283045	-85.465611	171.631647	554.737797	-102.192678	101.902947	504.124399	-109.839605	198.574229	540.003823	-126.243875	24.043584	368.850467	-117.521355	50.101344	369.945632	-203.330230	-49.344226	367.027238	-164.232558	215.393092	213.336426	-149.377001	141.640543	223.649897	-99.970313	88.361806	1082.544914	-453.766511	172.658064	1060.851285	-459.259905	189.834810	1091.332006	-451.536085	234.900907	997.466658	-460.776617	365.765393	897.283214	-447.130171	403.223749	880.035485	-337.173987	358.523916	776.895290	-469.377138	355.258768	692.288752	-448.014953	311.775485	615.525971	-445.732181	384.221625	687.601675	-420.801042	263.006534	477.511688	-443.479605	257.596838	477.618188	-356.093480	182.656169	447.533424	-403.750316	485.424459	454.959011	-402.007281	413.634230	431.425676	-353.557536	417.981483	414.819171	-464.506227	-178.167802	941.412952	-278.948950	-4.025093	85.634093	-484.098654	-15.866735	80.325316	-83.272110	
253	1.2650	481.974646	1443.728492	-154.756870	479.525867	1454.176713	-405.052852	449.940545	1494.560204	-278.115844	462.629841	1346.595323	-287.783813	536.582445	1148.072038	-22.700068	694.714386	903.594632	-83.871377	499.964641	1168.909789	-522.118958	684.870773	931.441850	-448.122450	-83.533229	1204.008064	-240.461311	66.552717	1225.409895	-416.287312	93.878547	1198.718169	-98.417908	NaN	NaN	NaN	128.459746	1146.435878	-149.907635	-49.069733	1245.239011	-199.013592	-60.498877	1254.631894	-272.937365	44.749250	1136.648824	-76.554818	19.140532	1147.090094	-444.023356	142.351119	1015.431952	-80.312341	207.205802	955.624782	-91.032182	237.034657	875.781649	-90.597321	232.185486	974.207041	-110.004002	287.878449	738.520672	-109.504687	263.146057	721.918972	-221.684813	205.038075	637.611549	-85.046584	172.934161	556.181216	-101.846405	102.888256	506.109399	-109.608123	199.859118	541.277984	-125.946544	23.996386	371.450741	-117.450751	50.218744	372.428555	-203.208674	-49.372724	370.210707	-164.255748	214.214379	214.541251	-149.382455	140.580738	225.455445	-100.025464	89.063467	1081.889242	-453.816212	173.319786	1060.149463	-459.234335	190.617278	1090.777256	-451.883597	235.541276	996.753765	-460.774814	366.163188	896.159577	-446.677926	404.296153	878.952569	-337.573725	359.427105	775.954618	-469.431054	356.438519	691.449610	-448.087922	313.205437	614.522128	-445.849956	385.487854	686.712061	-420.974759	264.858763	476.206256	-443.522951	259.416699	476.450298	-356.193399	184.346840	446.788954	-403.935285	487.241782	452.318560	-401.899875	415.283925	429.298360	-353.478062	419.583346	412.627956	-464.395515	-177.979531	941.320136	-278.918474	-4.031110	85.620208	-484.092129	-15.862891	80.331487	-83.269914	
254	1.2700	481.757675	1443.622774	-154.698433	479.304424	1454.311617	-405.003204	449.536822	1494.518956	-277.920130	462.420375	1346.516240	-287.809077	535.912655	1147.827954	-22.506375	694.471938	903.612708	-83.683036	499.540683	1168.924366	-522.132050	684.738151	931.554051	-448.081232	-83.310557	1202.960208	-240.621454	66.803922	1224.711556	-416.360813	93.845774	1198.024779	-98.490793	NaN	NaN	NaN	128.651686	1146.021251	-149.910090	-49.050572	1244.297088	-199.193328	-60.346911	1253.548027	-273.095880	44.987339	1135.952825	-76.582354	19.844232	1146.310878	-444.079867	143.279274	1015.466351	-80.296299	208.395248	955.987428	-91.072456	238.839474	876.397788	-90.340254	233.284731	974.531683	-110.250113	290.071108	739.339860	-108.975412	265.671033	722.687484	-221.192418	206.832327	638.907885	-84.700235	174.164865	557.732403	-101.508378	103.692853	508.159899	-109.570209	200.908307	542.645729	-125.674824	23.840767	374.055409	-117.503199	50.173754	374.880685	-203.159326	-49.436721	373.408905	-164.417513	213.055192	215.923623	-149.368712	139.442014	227.374218	-100.105908	89.663933	1081.358746	-453.882513	173.961406	1059.516009	-459.358141	191.291899	1090.086281	-451.940493	236.136714	995.961173	-460.893710	366.782428	895.258652	-446.671206	404.892453	878.081349	-337.715835	360.353543	775.043899	-469.505984	357.585930	690.475048	-448.243841	314.578450	613.437749	-446.017510	386.706363	685.835062	-421.181303	266.824183	474.788719	-443.668482	261.300129	474.988566	-356.220429	186.089565	445.876828	-404.113415	489.095093	449.588573	-401.717943	416.891762	426.756573	-353.709846	421.203701	410.363593	-464.338566	-177.969554	941.367265	-278.993352	-4.041195	85.623542	-484.098688	-15.856282	80.312724	-83.272592	
255	1.2750	481.631625	1443.448463	-154.535698	479.194974	1454.480679	-404.874949	449.220869	1494.220099	-277.529552	462.301917	1346.494319	-287.765964	535.298044	1147.628830	-22.192861	694.275749	903.683730	-83.427496	499.337615	1169.026583	-522.081511	684.684965	931.646306	-448.076254	-82.736089	1201.864456	-241.650854	67.198861	1224.151340	-416.580525	93.795516	1197.554560	-98.580719	NaN	NaN	NaN	128.676503	1145.450920	-150.177444	-49.153490	1243.491567	-199.330929	-60.162179	1252.672577	-273.372490	45.198411	1135.336946	-76.688236	20.473522	1145.670735	-444.192211	144.075703	1015.514998	-80.315322	209.599883	956.393275	-91.062050	240.486661	877.042558	-90.043228	234.348155	975.051627	-110.188685	292.093207	740.263907	-108.442287	268.058477	723.523215	-220.760960	208.352867	640.167115	-84.325522	175.140004	559.291156	-101.291309	104.096357	510.488891	-109.070339	201.806831	544.033033	-125.432190	23.575775	376.826392	-117.670928	50.170305	377.374425	-203.194881	-49.619926	376.544883	-164.666352	211.857169	217.365983	-149.389631	138.283124	229.291238	-100.170342	90.273288	1080.662901	-454.007853	174.554422	1058.702146	-459.428909	191.944613	1089.299160	-452.019191	236.664149	995.158277	-460.937285	367.426247	894.251554	-446.677979	405.587179	877.214176	-337.742958	361.292461	773.954523	-469.569474	358.768215	689.356594	-448.416887	316.072867	612.019989	-446.191264	387.922812	684.766913	-421.322070	268.714479	473.353102	-443.888348	263.070126	473.445922	-356.412717	187.834635	444.836020	-404.423276	490.893286	446.903167	-401.594122	418.490020	424.487867	-353.726060	422.837053	408.062777	-464.290928	-177.990090	941.491591	-279.060134	-4.035111	85.633364	-484.103940	-15.863575	80.324812	-83.272205	
256	1.2800	481.439465	1443.400329	-154.415101	479.203637	1454.719872	-404.686611	449.073555	1494.179453	-277.293499	462.300549	1346.512303	-287.768730	534.793538	1147.520509	-21.805081	694.103719	903.787132	-83.138399	499.400150	1169.196938	-521.990353	684.694334	931.718808	-448.054081	-82.700097	1201.405852	-241.486874	67.652171	1223.732073	-416.820713	93.726206	1197.124836	-98.758271	NaN	NaN	NaN	128.764112	1144.919730	-150.505730	-49.044658	1242.751050	-199.595029	-59.895648	1251.909806	-273.697779	45.332047	1134.866457	-76.853498	21.231502	1145.006468	-444.326628	144.663174	1015.658720	-80.346631	210.574505	956.895303	-90.873025	241.884299	877.701058	-89.692916	235.226377	975.593882	-110.052493	293.894810	741.169437	-107.929853	270.748149	724.173231	-219.761803	209.762093	641.728071	-84.188201	175.941230	560.811280	-101.059326	104.525060	512.548191	-109.124104	202.576226	545.594191	-125.129315	23.122274	379.557669	-117.922660	49.991932	379.850257	-203.249173	-49.934088	379.682326	-164.995022	210.641525	219.063990	-149.334598	137.097020	231.467478	-100.265642	90.917892	1080.035695	-454.219238	175.190287	1058.028344	-459.611142	192.553602	1088.524925	-452.119096	237.223798	994.317259	-461.006357	367.930511	893.196916	-446.709130	406.093306	876.158530	-337.784970	362.183812	772.780848	-469.621811	359.937960	688.188312	-448.553048	317.531202	610.745717	-446.548284	389.162893	683.596369	-421.483540	270.563540	471.749744	-444.103600	264.537142	471.900703	-356.837082	189.541306	443.709354	-404.723724	492.626778	444.126529	-401.470366	420.011253	422.122170	-353.681468	424.453921	405.630472	-464.224817	-177.990267	941.408968	-278.868647	-4.021374	85.655469	-484.107546	-15.860048	80.315386	-83.282467	
